<?xml version="1.0" standalone="no"?>
<!DOCTYPE svg PUBLIC "-//W3C//DTD SVG 20010904//EN"
 "http://www.w3.org/TR/2001/REC-SVG-20010904/DTD/svg10.dtd">
<svg version="1.0" xmlns="http://www.w3.org/2000/svg"
 width="1000.000000pt" height="1001.000000pt" viewBox="0 0 1000.000000 1001.000000"
 preserveAspectRatio="xMidYMid meet">

<g transform="translate(0.000000,1001.000000) scale(0.100000,-0.100000)"
fill="#000000" stroke="none">
<path d="M4682 9990 c-1106 -77 -2125 -496 -2957 -1215 -152 -132 -434 -417
-554 -560 -623 -746 -1009 -1636 -1131 -2605 -148 -1176 129 -2361 787 -3359
200 -304 367 -507 647 -787 407 -406 769 -669 1271 -924 1587 -806 3504 -700
4990 277 313 206 520 376 801 657 419 420 699 810 954 1331 781 1596 654 3497
-333 4969 -328 490 -767 945 -1239 1284 -718 516 -1537 825 -2438 917 -184 19
-625 27 -798 15z m688 -141 c1035 -72 2049 -499 2840 -1195 147 -129 408 -397
526 -539 691 -836 1079 -1841 1123 -2909 66 -1617 -655 -3132 -1954 -4108
-770 -578 -1726 -917 -2698 -957 -1265 -51 -2483 379 -3422 1209 -481 426
-869 934 -1150 1505 -440 896 -593 1883 -444 2875 139 922 535 1774 1150 2474
432 492 962 895 1544 1177 776 374 1603 530 2485 468z"/>
<path d="M3970 8482 c-256 -159 -613 -380 -794 -491 l-329 -204 -111 6 c-61 3
-232 27 -381 52 -356 61 -348 60 -364 41 -19 -23 -6 -62 26 -74 54 -21 686
-110 808 -114 l70 -2 500 320 c275 177 624 401 775 499 151 97 283 182 293
189 28 18 15 67 -17 66 -6 -1 -220 -130 -476 -288z"/>
<path d="M4624 8512 c-220 -141 -597 -382 -837 -536 -240 -153 -439 -286 -442
-296 -3 -10 0 -30 7 -45 9 -21 18 -26 37 -23 15 2 347 217 740 477 1007 666
942 621 939 651 -2 17 -10 26 -23 27 -12 1 -190 -107 -421 -255z"/>
<path d="M5110 8444 c-887 -582 -1361 -910 -1377 -951 -12 -32 57 -263 331
-1104 129 -397 144 -450 136 -480 -19 -65 -13 -94 25 -128 64 -56 136 -32 154
52 11 45 -5 80 -48 109 -33 22 -38 34 -118 293 -120 388 -318 1048 -339 1133
l-18 72 24 24 c33 32 424 301 1115 768 314 211 582 393 597 402 l26 17 844
-507 c1201 -722 1136 -682 1154 -716 26 -50 51 -68 95 -68 91 0 135 109 68
171 -27 25 -39 29 -87 29 -70 0 -44 -14 -742 413 -918 563 -1312 797 -1336
797 -5 0 -232 -147 -504 -326z"/>
<path d="M5435 8222 c-296 -187 -1240 -824 -1283 -866 -11 -11 -9 -28 8 -97
31 -121 167 -559 324 -1039 74 -228 154 -474 177 -547 l42 -131 86 -8 c86 -7
424 -2 1166 16 523 13 496 10 539 68 19 26 96 187 172 357 77 171 164 359 194
419 55 109 55 110 102 123 60 17 83 48 75 100 -8 44 -52 93 -85 93 -33 0 -90
-28 -107 -53 -10 -14 -12 -37 -8 -81 l5 -61 -155 -310 c-161 -321 -246 -477
-277 -509 -17 -17 -51 -19 -526 -29 -320 -6 -613 -7 -789 -1 l-280 9 -21 45
c-72 150 -466 1402 -480 1526 -6 50 -6 51 37 86 95 76 971 669 1202 812 l79
49 56 -23 c180 -74 802 -407 909 -487 17 -13 42 -39 54 -58 26 -38 85 -75 119
-75 27 0 85 58 94 95 9 35 -12 74 -53 102 -28 19 -42 22 -86 17 -59 -7 -2 -36
-635 318 -317 177 -452 248 -472 248 -7 -1 -89 -49 -183 -108z"/>
<path d="M5569 7857 c-364 -230 -895 -594 -940 -644 -28 -33 -30 -39 -24 -87
4 -28 21 -96 37 -151 91 -309 323 -1014 343 -1041 13 -18 35 -19 617 -17 332
1 617 5 633 10 27 8 43 35 157 258 96 188 135 255 162 277 51 42 59 60 46 108
-13 48 -42 70 -92 70 -27 0 -46 -8 -69 -28 -34 -30 -37 -51 -24 -127 6 -35 0
-52 -43 -140 -65 -133 -151 -284 -173 -306 -18 -18 -40 -19 -321 -19 -296 0
-726 14 -780 26 -30 6 -35 16 -104 214 -94 271 -274 848 -274 880 0 8 35 40
78 71 136 99 568 397 719 496 l145 96 62 -30 c33 -17 237 -128 451 -247 215
-119 431 -238 482 -264 l91 -46 64 13 c34 7 130 32 213 56 l150 43 180 -111
c223 -137 662 -418 856 -548 110 -73 149 -105 159 -128 28 -68 98 -82 149 -30
41 40 41 80 2 120 -25 24 -37 29 -74 28 -41 -2 -56 6 -189 95 -78 53 -195 133
-258 177 -98 68 -499 314 -748 458 -85 49 -67 51 -298 -20 -89 -27 -169 -49
-178 -49 -23 0 -69 24 -509 266 -326 180 -597 324 -610 324 -2 0 -41 -24 -88
-53z"/>
<path d="M1668 7474 c-246 -346 -985 -1436 -1074 -1582 l-32 -54 20 -71 c25
-92 576 -1745 618 -1855 23 -59 39 -86 54 -91 11 -4 107 -13 211 -20 700 -44
1335 -88 1372 -96 12 -3 154 -132 316 -288 317 -305 504 -479 581 -542 l49
-40 181 1 c201 1 326 10 815 55 l333 32 40 -23 c39 -22 41 -22 84 -5 51 19 67
47 57 97 -9 51 -22 68 -58 84 -38 16 -75 7 -111 -27 -15 -14 -45 -22 -105 -29
-203 -22 -882 -60 -1092 -60 l-107 0 -99 93 c-54 50 -244 232 -422 404 -178
171 -339 323 -357 338 -41 34 -20 32 -797 85 -707 48 -816 57 -826 67 -5 5
-24 64 -44 133 -20 69 -155 483 -301 921 -145 437 -264 804 -264 814 0 51 695
1086 1007 1500 l98 130 70 3 c125 6 562 -51 1262 -163 161 -26 299 -45 308
-42 19 8 20 56 2 81 -15 20 -21 21 -658 126 -454 74 -824 127 -950 136 l-96 7
-85 -119z"/>
<path d="M5359 7279 c-167 -121 -310 -228 -316 -237 -21 -26 -15 -60 37 -233
115 -373 160 -499 188 -517 22 -14 69 -17 383 -20 197 -3 370 -1 384 2 28 7
31 12 165 306 29 63 86 181 126 263 l74 147 28 -14 c15 -8 81 -46 147 -86 144
-86 140 -86 325 -9 79 32 146 53 182 56 l57 6 143 -88 c278 -171 875 -575 893
-604 7 -13 -26 -72 -202 -358 -79 -128 -143 -240 -143 -250 0 -16 319 -650
409 -812 25 -46 56 -88 68 -94 34 -15 53 -2 53 36 0 34 -21 76 -315 638 -57
108 -106 206 -110 218 -5 18 27 74 163 279 191 290 238 370 226 382 -37 34
-633 428 -892 589 -295 184 -297 184 -350 178 -26 -3 -97 -27 -157 -53 -146
-63 -192 -67 -265 -24 -66 40 -271 140 -285 140 -13 0 -219 -416 -307 -619
l-63 -144 -317 2 c-174 1 -329 6 -344 10 -26 7 -32 21 -91 197 -35 104 -79
243 -99 308 l-35 120 23 22 c13 12 136 99 273 194 209 143 254 170 277 166 15
-3 108 -48 206 -101 197 -104 230 -116 255 -90 27 27 20 53 -20 78 -125 78
-430 237 -456 237 -8 0 -152 -99 -318 -221z"/>
<path d="M1860 7093 c-89 -140 -174 -265 -430 -633 -392 -563 -440 -637 -440
-676 0 -27 211 -679 493 -1524 28 -81 31 -83 272 -104 324 -29 1217 -86 1340
-86 l51 0 176 298 c97 163 256 432 353 597 145 248 185 309 230 350 60 54 68
81 40 134 -24 47 -77 55 -134 20 -34 -20 -34 -20 -27 -80 6 -59 5 -61 -48
-147 -29 -48 -119 -199 -198 -337 -274 -472 -448 -742 -484 -751 -26 -7 -211
6 -724 51 -217 19 -465 39 -550 46 -93 7 -164 17 -177 25 -17 10 -71 165 -268
758 -215 653 -245 748 -234 768 33 63 378 576 550 818 107 151 222 316 256
365 33 50 67 96 75 103 19 15 55 10 713 -93 754 -118 833 -128 861 -110 13 8
24 21 24 28 0 40 -22 46 -335 97 -665 109 -1162 179 -1261 180 l-62 0 -62 -97z"/>
<path d="M5609 7039 c-48 -28 -112 -71 -143 -95 -65 -51 -64 -35 -7 -209 l36
-110 45 -7 c25 -3 98 -7 162 -7 108 -1 119 1 138 21 26 29 150 273 150 297 0
15 -32 36 -126 85 -70 37 -136 69 -148 72 -14 3 -50 -12 -107 -47z m179 -89
c117 -59 111 -47 62 -136 -64 -118 -58 -114 -170 -114 -66 0 -101 4 -108 13
-14 17 -51 140 -45 150 8 13 165 127 175 127 5 0 43 -18 86 -40z"/>
<path d="M2085 6804 c-23 -26 -305 -435 -591 -857 -102 -149 -114 -172 -114
-210 0 -29 62 -231 190 -619 209 -634 198 -610 287 -622 123 -15 890 -77 987
-79 l108 -2 273 460 c231 390 278 463 308 480 57 33 77 56 77 87 0 94 -100
139 -167 76 -19 -17 -23 -32 -23 -77 0 -56 -2 -60 -230 -431 -127 -206 -247
-403 -268 -437 -21 -38 -43 -63 -53 -63 -41 0 -1002 91 -1009 95 -12 7 -370
1108 -370 1136 0 29 571 865 650 951 l25 28 90 -15 c50 -8 350 -53 669 -99
482 -71 582 -88 600 -104 35 -32 63 -42 95 -36 65 13 92 94 50 148 -23 29 -44
32 -128 15 -51 -10 -97 -5 -521 60 -256 40 -544 85 -640 101 -288 48 -266 47
-295 14z"/>
<path d="M7205 6578 c-35 -27 -59 -82 -46 -106 21 -39 51 -56 96 -54 40 1 57
-8 241 -131 109 -72 202 -135 207 -138 4 -3 -49 -97 -119 -210 -78 -127 -128
-217 -131 -239 -8 -54 39 -164 237 -555 231 -457 278 -539 310 -543 14 -2 34
3 44 11 18 13 14 24 -99 243 -228 441 -385 758 -391 791 -7 37 -5 40 146 283
118 189 142 234 134 255 -4 9 -111 85 -238 170 -127 84 -251 173 -276 199 -50
52 -74 57 -115 24z"/>
<path d="M2259 6430 c-29 -17 -333 -453 -428 -614 -29 -50 -55 -104 -58 -120
-3 -22 30 -137 116 -399 66 -202 127 -382 135 -401 25 -59 41 -64 297 -87 189
-17 239 -25 260 -40 48 -34 77 -40 114 -25 82 35 73 141 -15 167 -37 11 -43
10 -78 -15 -39 -26 -40 -26 -133 -16 -122 13 -231 28 -296 41 l-52 10 -121
364 c-66 199 -120 370 -120 377 0 18 117 202 298 471 116 170 137 196 155 192
12 -3 243 -37 512 -75 787 -113 760 -108 796 -142 25 -25 37 -29 62 -24 50 10
77 43 77 93 0 73 -47 100 -125 72 -33 -12 -254 17 -1000 132 -332 51 -369 55
-396 39z"/>
<path d="M8592 6208 c-137 -206 -347 -536 -363 -570 -10 -24 -2 -46 110 -261
100 -195 217 -409 267 -491 11 -18 14 -18 61 -2 58 19 502 237 543 266 25 18
30 32 54 157 38 204 75 443 82 544 l7 90 -45 42 c-76 73 -557 387 -593 387 -8
0 -63 -73 -123 -162z m261 -68 c135 -83 270 -174 312 -211 31 -27 35 -37 35
-78 0 -66 -50 -427 -76 -553 -4 -22 -24 -38 -97 -79 -114 -64 -326 -169 -342
-169 -18 0 -296 503 -310 561 -4 19 21 65 114 212 185 291 244 377 256 377 6
0 55 -27 108 -60z"/>
<path d="M7008 6223 c-30 -35 -39 -64 -32 -96 4 -18 7 -40 5 -50 -1 -10 -45
-114 -98 -230 -52 -117 -102 -228 -110 -248 l-15 -36 277 -599 c324 -699 469
-1004 501 -1056 32 -51 94 -84 193 -102 135 -26 186 -9 644 208 374 177 348
167 421 160 53 -5 65 -3 89 16 36 29 38 86 3 127 -19 22 -32 28 -66 28 -38 0
-47 -5 -84 -48 -39 -44 -59 -55 -348 -182 -326 -143 -491 -209 -551 -220 -42
-8 -158 23 -194 52 -27 22 -317 603 -755 1511 l-40 82 50 113 c27 61 75 173
106 249 52 123 63 140 108 179 46 39 50 45 45 77 -11 62 -31 82 -86 82 -33 0
-53 -5 -63 -17z"/>
<path d="M2411 6033 c-16 -16 -79 -103 -140 -195 -86 -129 -111 -174 -111
-200 0 -41 136 -451 158 -477 15 -18 43 -21 247 -35 339 -23 355 -24 375 -19
27 7 125 175 313 535 50 98 97 179 102 181 6 2 112 -9 237 -24 246 -32 278
-30 278 15 0 13 -6 29 -14 35 -17 14 -1311 211 -1388 211 -16 0 -40 -11 -57
-27z m451 -129 c186 -26 343 -51 349 -55 13 -8 -61 -154 -223 -441 l-101 -178
-86 0 c-97 1 -398 24 -405 31 -7 7 -106 350 -106 367 0 8 43 86 96 173 83 139
98 158 117 154 12 -2 174 -25 359 -51z"/>
<path d="M7126 5585 c-48 -44 -31 -126 33 -159 22 -12 60 -81 206 -383 98
-202 223 -457 278 -567 l100 -199 66 -30 c36 -16 83 -32 103 -35 44 -5 94 14
522 200 288 126 300 130 336 119 55 -16 75 -14 109 15 45 37 43 81 -5 124 -51
45 -98 40 -134 -14 -22 -32 -44 -46 -131 -83 -169 -73 -509 -209 -582 -233
-65 -22 -68 -22 -111 -6 -25 10 -56 26 -71 37 -46 37 -289 472 -473 847 -76
155 -95 203 -93 231 8 91 5 103 -27 133 -41 36 -89 38 -126 3z"/>
<path d="M4225 5431 c-37 -16 -57 -49 -64 -108 -4 -32 -13 -69 -20 -82 -7 -13
-154 -256 -325 -540 -172 -284 -316 -528 -320 -543 -4 -17 0 -42 9 -64 28 -68
507 -526 565 -541 32 -8 261 10 610 48 440 47 652 69 680 69 26 0 43 -34 193
-385 l34 -80 -27 -160 c-35 -212 -58 -303 -79 -314 -35 -19 -191 -42 -519 -76
-186 -19 -367 -39 -402 -43 -48 -7 -77 -5 -122 7 l-60 16 -25 -29 c-21 -24
-24 -37 -20 -69 11 -79 75 -103 141 -52 43 33 39 32 426 75 434 48 600 69 620
80 33 18 70 113 100 260 17 80 33 188 37 241 l6 96 -83 189 c-129 296 -137
310 -169 324 -34 14 -229 -3 -889 -74 -216 -24 -404 -41 -418 -38 -13 2 -61
37 -107 77 -90 79 -368 362 -394 401 -15 24 -11 32 265 492 359 597 371 616
421 642 47 24 61 45 61 95 0 66 -65 110 -125 86z"/>
<path d="M6487 5418 c-24 -19 -38 -64 -27 -92 5 -13 21 -33 37 -44 18 -13 42
-51 67 -108 22 -49 153 -334 292 -634 138 -300 281 -610 318 -690 110 -240
163 -327 214 -357 66 -39 177 -82 266 -103 91 -22 100 -20 264 56 53 25 261
118 462 206 544 239 530 232 530 261 0 34 -22 49 -57 41 -15 -4 -131 -54 -258
-112 -513 -233 -664 -301 -753 -336 -88 -35 -96 -37 -145 -26 -73 15 -174 55
-237 93 -68 41 -81 61 -243 412 -212 460 -486 1042 -548 1167 -52 104 -59 125
-59 177 0 52 -3 62 -26 80 -30 24 -72 27 -97 9z"/>
<path d="M6154 5330 c-19 -7 -44 -55 -44 -83 0 -6 22 -31 49 -56 48 -44 67
-83 537 -1101 267 -580 510 -1109 539 -1175 85 -192 131 -261 242 -356 145
-127 220 -153 428 -154 132 0 158 3 215 23 195 70 320 166 385 294 46 93 46
143 -2 385 l-36 186 29 24 c16 13 74 47 129 75 91 47 106 52 167 53 57 0 70 4
93 25 23 21 26 31 22 63 -3 22 -16 50 -29 64 -43 47 -145 16 -174 -52 -7 -19
-24 -37 -36 -41 -34 -10 -280 -129 -301 -146 -17 -13 -17 -22 17 -206 42 -226
46 -316 15 -379 -47 -97 -216 -214 -359 -247 -132 -32 -243 -15 -390 57 -110
54 -229 168 -282 272 -20 39 -238 509 -486 1045 -248 536 -484 1048 -525 1137
-42 89 -79 179 -82 200 -12 66 -16 75 -51 89 -38 16 -41 16 -70 4z"/>
<path d="M4954 5280 c-344 -5 -363 -6 -384 -25 -31 -27 -143 -186 -230 -325
-165 -262 -430 -737 -430 -770 0 -16 68 -89 172 -187 92 -87 70 -84 393 -53
449 43 810 87 837 101 21 11 23 48 5 73 -15 20 23 23 -875 -80 l-223 -26 -36
27 c-75 58 -163 148 -163 167 0 12 14 46 32 77 116 207 426 719 519 857 l48
71 58 6 c32 4 298 7 591 9 l533 2 65 -139 c66 -140 852 -1843 1323 -2866 l251
-545 0 -71 c0 -65 2 -73 26 -92 70 -55 154 -2 154 98 0 37 -4 42 -43 66 -50
29 4 -83 -629 1290 -198 429 -470 1019 -605 1310 -136 292 -274 593 -308 670
-34 77 -86 190 -116 252 l-54 112 -275 -2 c-151 -1 -438 -4 -636 -7z"/>
<path d="M4925 4950 c-71 -3 -139 -11 -150 -17 -36 -20 -92 -86 -147 -173 -84
-130 -238 -415 -238 -438 0 -43 27 -55 109 -48 107 9 587 63 770 87 85 10 155
18 157 16 8 -8 468 -1027 484 -1072 16 -43 17 -63 9 -145 -27 -269 -119 -654
-169 -708 -12 -12 -31 -29 -43 -36 -27 -18 -295 -57 -667 -96 -157 -17 -336
-37 -399 -45 -110 -14 -115 -14 -159 5 -59 26 -97 19 -123 -23 -26 -43 -24
-90 4 -122 33 -38 81 -38 138 2 41 29 57 33 244 57 110 14 313 37 450 51 277
29 520 61 577 76 34 9 41 17 78 95 22 47 49 118 60 157 20 74 59 292 81 452
l12 90 37 -80 c21 -44 177 -384 348 -755 171 -371 330 -717 355 -768 44 -92
44 -94 30 -134 -17 -50 -11 -81 22 -114 34 -34 102 -34 144 2 39 33 44 94 9
122 -81 66 -77 56 -580 1147 -99 215 -244 527 -323 695 -79 168 -225 487 -325
710 -230 510 -244 538 -277 551 -21 8 -122 -3 -427 -46 -221 -30 -411 -57
-424 -59 -12 -2 -25 1 -28 6 -6 9 156 309 207 385 24 34 37 43 77 52 156 33
696 42 726 11 8 -8 128 -262 266 -565 671 -1465 962 -2094 1171 -2524 105
-217 109 -226 109 -291 0 -75 13 -95 67 -106 35 -7 87 16 103 45 11 22 13 71
4 95 -3 9 -22 25 -41 37 -28 18 -50 54 -134 221 -140 279 -276 574 -526 1138
-340 767 -486 1094 -582 1297 -129 273 -348 715 -366 738 -13 16 -33 21 -103
27 -104 8 -436 7 -617 -2z"/>
<path d="M3237 3923 c-27 -26 2 -60 301 -353 170 -165 326 -313 347 -327 52
-35 81 -37 436 -24 640 24 874 66 829 151 -14 27 -39 26 -332 -9 -364 -44
-487 -53 -675 -50 l-170 4 -56 37 c-30 21 -146 124 -257 230 -311 298 -368
348 -394 348 -12 0 -26 -3 -29 -7z"/>
<path d="M7505 3214 c-23 -23 -16 -45 72 -211 92 -173 131 -215 219 -233 80
-17 200 -8 250 19 114 60 158 151 119 243 -12 31 -12 38 0 54 19 25 19 84 -1
112 -12 17 -25 22 -60 22 -55 0 -94 -33 -94 -79 0 -45 9 -59 46 -71 35 -12 41
-29 34 -95 -6 -66 -78 -104 -193 -105 -134 0 -160 21 -252 201 -55 107 -92
159 -114 159 -5 0 -17 -7 -26 -16z"/>
</g>
</svg>
