<?xml version="1.0" standalone="no"?>
<!DOCTYPE svg PUBLIC "-//W3C//DTD SVG 20010904//EN"
 "http://www.w3.org/TR/2001/REC-SVG-20010904/DTD/svg10.dtd">
<svg version="1.0" xmlns="http://www.w3.org/2000/svg"
 width="320.000000pt" height="320.000000pt" viewBox="0 0 320.000000 320.000000"
 preserveAspectRatio="xMidYMid meet">

<g transform="translate(0.000000,320.000000) scale(0.100000,-0.100000)"
fill="#000000" stroke="none">
<path d="M1500 2789 c-43 -18 -90 -59 -110 -99 -19 -37 -20 -59 -20 -350 0
-333 1 -340 54 -398 48 -54 64 -57 327 -62 262 -5 279 -9 279 -55 0 -12 -18
-43 -41 -68 l-40 -46 57 19 c137 47 257 161 298 283 13 39 16 96 16 325 0 162
-4 293 -11 315 -13 49 -63 105 -114 128 -36 17 -71 19 -355 18 -183 0 -325 -4
-340 -10z m644 -165 c14 -13 16 -53 16 -280 0 -164 -4 -273 -10 -285 -10 -18
-24 -19 -303 -19 -215 0 -296 3 -305 12 -17 17 -17 559 0 576 9 9 89 12 299
12 248 0 290 -2 303 -16z"/>
<path d="M1560 2330 l0 -80 68 0 c40 0 73 -5 80 -12 7 -7 12 -43 12 -90 l0
-78 80 0 80 0 0 90 c0 129 -29 188 -112 231 -28 14 -58 19 -123 19 l-85 0 0
-80z"/>
<path d="M1039 2387 c-29 -16 -54 -40 -74 -72 l-30 -48 0 -316 0 -316 29 -54
c45 -86 127 -165 219 -211 96 -48 122 -52 85 -12 -54 58 -63 107 -22 122 14 6
128 10 253 10 219 0 230 1 272 23 24 13 58 43 74 66 28 40 30 49 33 152 l4
109 -81 0 -81 0 0 -83 c0 -51 -5 -88 -12 -95 -9 -9 -90 -12 -305 -12 -279 0
-293 1 -303 19 -6 12 -10 120 -10 281 0 161 4 269 10 281 10 17 22 19 120 19
l110 0 0 80 0 80 -123 0 c-110 0 -129 -3 -168 -23z"/>
<path d="M389 1151 c-24 -19 -24 -22 -24 -201 0 -232 -10 -220 181 -220 l134
0 0 55 0 54 -107 3 -108 3 -3 108 -3 107 111 0 110 0 0 55 0 55 -134 0 c-117
0 -137 -2 -157 -19z"/>
<path d="M770 975 c0 -195 0 -196 25 -220 23 -24 29 -25 168 -25 204 0 191
-16 195 239 l3 201 -50 0 -51 0 -2 -162 -3 -163 -92 -3 -93 -3 0 166 0 165
-50 0 -50 0 0 -195z"/>
<path d="M1242 969 c4 -255 -9 -239 194 -239 l144 0 0 55 0 54 -117 3 -118 3
-3 163 -2 162 -51 0 -50 0 3 -201z"/>
<path d="M1680 1150 c-19 -19 -20 -33 -20 -198 0 -138 3 -183 14 -198 13 -17
29 -19 160 -22 l146 -3 0 55 0 55 -112 3 -113 3 0 105 0 105 113 3 112 3 0 54
0 55 -140 0 c-127 0 -142 -2 -160 -20z"/>
<path d="M2092 1154 c-21 -15 -22 -20 -22 -204 l0 -190 24 -15 c21 -14 51 -16
176 -13 136 3 153 5 166 22 11 15 14 60 14 197 l0 178 -26 20 c-24 19 -40 21
-168 21 -112 0 -146 -3 -164 -16z m262 -110 c9 -23 7 -177 -2 -192 -6 -9 -33
-12 -98 -10 l-89 3 -3 94 c-1 52 -1 100 2 108 8 21 182 18 190 -3z"/>
<path d="M2558 1159 c-16 -9 -18 -31 -18 -219 l0 -210 45 0 45 0 1 103 0 102
33 -71 c37 -79 47 -89 80 -80 17 4 32 25 54 73 l31 68 0 -97 1 -98 50 0 50 0
0 196 c0 115 -4 203 -10 215 -8 13 -21 19 -46 19 -34 0 -35 -2 -84 -102 -28
-56 -52 -103 -54 -106 -3 -2 -28 42 -57 99 -61 124 -75 136 -121 108z"/>
<path d="M780 535 c0 -63 4 -105 10 -105 6 0 10 42 10 105 0 63 -4 105 -10
105 -6 0 -10 -42 -10 -105z"/>
<path d="M880 610 c0 -20 -5 -30 -15 -30 -8 0 -15 -4 -15 -10 0 -5 7 -10 15
-10 12 0 15 -14 15 -65 0 -37 4 -65 10 -65 6 0 10 28 10 65 0 58 2 65 20 65
11 0 20 4 20 9 0 5 -9 11 -20 14 -14 3 -20 14 -20 31 0 14 -4 26 -10 26 -5 0
-10 -13 -10 -30z"/>
<path d="M2510 535 c0 -87 3 -105 15 -105 12 0 15 18 15 105 0 87 -3 105 -15
105 -12 0 -15 -18 -15 -105z"/>
<path d="M399 561 c-34 -35 -37 -68 -8 -105 27 -34 96 -37 124 -6 23 25 12 39
-13 17 -23 -21 -75 -22 -92 -2 -20 24 -15 67 10 87 25 20 53 17 83 -10 9 -8
20 -12 25 -8 11 12 -47 56 -74 56 -15 0 -38 -12 -55 -29z"/>
<path d="M1203 583 c-21 -4 -23 -10 -23 -79 0 -43 4 -74 10 -74 6 0 10 25 10
55 0 44 4 57 20 67 19 12 28 40 13 37 -5 -1 -18 -4 -30 -6z"/>
<path d="M1324 579 c-23 -12 -44 -49 -44 -78 0 -10 9 -30 21 -45 28 -36 86
-36 119 -1 18 19 20 25 8 25 -9 0 -21 -7 -28 -15 -24 -29 -90 -13 -90 22 0 9
18 13 65 13 57 0 65 2 65 19 0 47 -70 83 -116 60z m73 -34 l28 -24 -57 -1
c-62 0 -72 9 -36 34 29 21 32 20 65 -9z"/>
<path d="M1644 580 c-28 -11 -54 -48 -54 -78 0 -12 11 -34 25 -47 31 -32 93
-34 120 -5 23 25 12 39 -13 17 -21 -19 -54 -22 -83 -7 -23 13 -26 72 -4 90 22
18 62 15 85 -5 11 -10 23 -15 28 -11 10 10 -45 56 -66 55 -9 0 -27 -4 -38 -9z"/>
<path d="M1845 578 c-77 -42 -51 -148 37 -148 84 0 106 108 31 148 -27 15 -42
15 -68 0z m70 -33 c29 -28 31 -42 9 -73 -30 -44 -104 -16 -104 39 0 17 44 59
62 59 5 0 20 -11 33 -25z"/>
<path d="M2038 583 c-28 -4 -28 -5 -28 -79 0 -59 3 -74 15 -74 12 0 15 13 15
60 0 65 17 88 52 69 14 -8 18 -22 18 -69 0 -47 3 -60 15 -60 12 0 15 13 15 60
0 49 3 61 20 70 33 17 60 -19 60 -80 0 -27 5 -50 10 -50 6 0 10 27 10 60 0 73
-24 106 -68 95 -32 -7 -48 -8 -82 -2 -14 3 -37 3 -52 0z"/>
<path d="M2350 580 c-8 -5 -23 -7 -32 -4 -16 5 -18 -4 -18 -95 0 -61 4 -101
10 -101 6 0 10 13 10 29 0 28 1 28 49 23 41 -4 51 -1 70 19 26 28 28 79 4 108
-21 24 -71 36 -93 21z m64 -31 c30 -23 33 -45 10 -77 -30 -44 -104 -16 -104
39 0 16 44 59 60 59 4 0 19 -9 34 -21z"/>
<path d="M2635 578 c-49 -28 -59 -78 -24 -122 26 -33 86 -37 114 -6 23 25 12
39 -13 17 -33 -30 -92 -17 -92 20 0 9 18 13 65 13 67 0 74 5 59 45 -7 17 -54
45 -76 45 -7 0 -22 -6 -33 -12z m63 -24 c34 -24 26 -34 -28 -34 -27 0 -50 4
-50 9 0 10 39 41 50 41 3 0 16 -7 28 -16z"/>
<path d="M580 527 c0 -78 18 -98 86 -95 l54 2 0 73 c0 42 -4 73 -10 73 -5 0
-10 -18 -10 -39 0 -22 -4 -52 -10 -66 -8 -22 -15 -26 -42 -23 -33 3 -33 3 -36
66 -2 46 -7 62 -17 62 -11 0 -15 -13 -15 -53z"/>
<path d="M980 527 c0 -78 18 -98 86 -95 l54 2 0 73 c0 57 -3 73 -15 73 -10 0
-15 -16 -17 -62 l-3 -63 -35 0 -35 0 -3 63 c-2 46 -7 62 -17 62 -11 0 -15 -13
-15 -53z"/>
<path d="M2814 543 c23 -34 24 -39 11 -58 -32 -44 -36 -55 -22 -55 8 0 23 12
32 27 l18 26 19 -26 c33 -45 53 -33 22 13 l-27 40 27 35 c20 26 23 35 12 35
-9 0 -23 -12 -33 -26 l-17 -26 -19 26 c-10 14 -25 26 -33 26 -11 0 -8 -10 10
-37z"/>
</g>
</svg>
