<?xml version="1.0" standalone="no"?>
<!DOCTYPE svg PUBLIC "-//W3C//DTD SVG 20010904//EN"
 "http://www.w3.org/TR/2001/REC-SVG-20010904/DTD/svg10.dtd">
<svg version="1.0" xmlns="http://www.w3.org/2000/svg"
 width="224.000000pt" height="225.000000pt" viewBox="0 0 224.000000 225.000000"
 preserveAspectRatio="xMidYMid meet">

<g transform="translate(0.000000,225.000000) scale(0.100000,-0.100000)"
fill="#000000" stroke="none">
<path d="M0 1125 l0 -1125 1120 0 1120 0 0 1125 0 1125 -1120 0 -1120 0 0
-1125z m1458 675 c63 -22 84 -42 65 -61 -6 -6 -36 -1 -86 16 -141 47 -300 26
-405 -53 -65 -49 -96 -87 -129 -159 -23 -48 -28 -73 -29 -143 -1 -95 -10 -117
-73 -194 -23 -26 -41 -52 -41 -57 0 -5 15 -15 34 -23 42 -18 56 -41 55 -98 0
-89 2 -102 18 -120 13 -14 14 -25 5 -60 -7 -26 -7 -48 -2 -59 14 -25 64 -39
144 -39 113 0 130 -13 203 -155 67 -130 74 -155 44 -155 -15 0 -34 30 -80 120
-34 66 -70 124 -81 130 -10 5 -47 10 -82 10 -82 0 -136 15 -171 48 -27 25 -29
31 -24 84 4 42 1 60 -9 69 -8 6 -15 26 -15 43 -2 123 -3 128 -29 138 -37 14
-60 38 -60 64 0 12 23 51 51 86 62 77 72 99 63 153 -7 48 14 143 45 204 50 97
172 193 290 227 68 20 220 11 299 -16z m-210 -132 c7 -7 12 -20 12 -30 0 -11
18 -27 50 -43 41 -21 54 -23 71 -15 25 14 69 -10 69 -37 0 -39 -52 -67 -77
-42 -14 14 -113 -37 -113 -57 0 -8 23 -25 50 -39 41 -21 54 -23 71 -15 25 14
69 -10 69 -37 0 -39 -52 -67 -77 -42 -13 13 -113 -38 -113 -58 0 -7 23 -24 50
-38 41 -21 54 -23 71 -15 25 14 69 -10 69 -37 0 -39 -52 -67 -77 -42 -15 15
-113 -39 -113 -62 0 -21 -20 -39 -45 -39 -27 0 -45 18 -45 46 0 31 25 48 60
40 37 -7 120 30 120 54 0 24 -83 61 -120 54 -37 -8 -60 9 -60 45 0 16 -10 37
-25 51 l-25 23 -25 -23 c-14 -13 -25 -35 -25 -50 0 -31 -17 -50 -45 -50 -27 0
-45 18 -45 45 0 28 19 45 50 45 15 0 37 11 50 25 l23 25 -23 25 c-13 14 -35
25 -50 25 -31 0 -50 17 -50 45 0 27 18 45 45 45 28 0 45 -19 45 -50 0 -15 11
-37 25 -50 l25 -23 25 23 c15 14 25 35 25 51 0 36 23 53 60 45 38 -7 120 30
120 54 0 22 -74 55 -124 55 -50 0 -74 29 -50 63 17 24 53 29 72 10z"/>
<path d="M1214 1403 c-17 -2 -42 -15 -54 -28 -22 -23 -22 -24 -4 -48 27 -36
94 -42 151 -14 24 12 43 28 43 37 0 15 -80 62 -98 58 -4 0 -21 -3 -38 -5z"/>
</g>
</svg>
