<?xml version="1.0" standalone="no"?>
<!DOCTYPE svg PUBLIC "-//W3C//DTD SVG 20010904//EN"
 "http://www.w3.org/TR/2001/REC-SVG-20010904/DTD/svg10.dtd">
<svg version="1.0" xmlns="http://www.w3.org/2000/svg"
 width="100.000000pt" height="100.000000pt" viewBox="0 0 100.000000 100.000000"
 preserveAspectRatio="xMidYMid meet">

<g transform="translate(0.000000,100.000000) scale(0.100000,-0.100000)"
fill="#000000" stroke="none">
<path d="M441 880 c-24 -11 -52 -20 -63 -20 -10 0 -16 -4 -13 -10 3 -5 0 -8
-7 -5 -7 2 -40 -6 -73 -18 -52 -19 -60 -26 -63 -49 -2 -16 -1 -28 2 -28 3 0
67 21 141 46 l136 46 135 -46 c74 -25 137 -46 139 -46 3 0 5 14 5 30 0 29 -7
34 -47 33 -7 -1 -13 4 -13 9 0 6 -9 8 -20 5 -11 -3 -18 -1 -15 3 7 11 -155 61
-168 53 -6 -3 -7 -1 -3 5 11 18 -23 14 -73 -8z"/>
<path d="M220 680 l0 -30 280 0 280 0 0 30 0 30 -280 0 -280 0 0 -30z"/>
<path d="M220 480 l0 -120 35 0 35 0 0 120 0 120 -35 0 -35 0 0 -120z"/>
<path d="M390 480 l0 -120 30 0 30 0 0 120 0 120 -30 0 -30 0 0 -120z"/>
<path d="M550 480 l0 -120 30 0 30 0 0 120 0 120 -30 0 -30 0 0 -120z"/>
<path d="M711 490 c1 -116 5 -124 47 -94 20 14 22 23 22 110 l0 94 -35 0 -36
0 2 -110z"/>
<path d="M765 330 c3 -5 0 -7 -8 -4 -8 3 -17 1 -21 -4 -3 -5 -58 -9 -123 -10
-169 -3 -343 -14 -339 -21 3 -4 -8 -7 -22 -6 -23 0 -27 -5 -30 -32 -3 -32 -2
-33 24 -23 15 6 122 13 238 17 240 7 290 18 294 67 1 14 -3 26 -9 26 -5 0 -7
-4 -4 -10z"/>
<path d="M735 208 c-12 -7 -106 -15 -240 -19 -122 -4 -233 -13 -248 -18 -20
-8 -27 -17 -27 -37 0 -23 3 -25 23 -19 12 3 126 10 252 15 127 4 231 8 233 9
1 1 2 5 2 11 0 5 -8 7 -17 4 -15 -5 -16 -4 -3 5 9 6 18 7 24 1 15 -15 46 9 46
35 0 27 -14 31 -45 13z"/>
</g>
</svg>
