<?xml version="1.0" standalone="no"?>
<!DOCTYPE svg PUBLIC "-//W3C//DTD SVG 20010904//EN"
 "http://www.w3.org/TR/2001/REC-SVG-20010904/DTD/svg10.dtd">
<svg version="1.0" xmlns="http://www.w3.org/2000/svg"
 width="438.000000pt" height="423.000000pt" viewBox="0 0 438.000000 423.000000"
 preserveAspectRatio="xMidYMid meet">

<g transform="translate(0.000000,423.000000) scale(0.100000,-0.100000)"
fill="#000000" stroke="none">
<path d="M0 2115 l0 -2115 2190 0 2190 0 0 2115 0 2115 -2190 0 -2190 0 0
-2115z m1990 1266 l0 -89 -104 -4 c-94 -3 -108 -6 -130 -27 -19 -18 -26 -35
-26 -61 0 -59 56 -125 205 -242 115 -91 165 -158 165 -226 0 -64 -38 -67 -199
-12 -64 22 -132 40 -150 40 -47 0 -91 -46 -91 -95 0 -97 65 -161 264 -262 175
-87 243 -136 285 -202 27 -42 147 -340 139 -346 -2 -1 -32 7 -67 19 l-65 21
-38 95 c-68 171 -123 176 -146 11 -8 -55 -24 -111 -48 -165 -41 -90 -47 -133
-23 -149 25 -16 61 -1 145 59 65 46 83 55 108 51 56 -9 143 -47 169 -73 16
-16 48 -86 88 -195 l62 -169 60 0 c43 0 58 3 54 13 -2 6 -19 55 -37 107 -61
179 -31 267 172 488 88 97 121 159 122 230 1 42 -3 57 -18 68 -27 19 -54 18
-96 -5 -116 -64 -118 -65 -144 -53 -54 25 -42 120 26 211 23 30 71 86 106 125
84 91 118 146 133 211 10 47 9 57 -7 91 -11 23 -30 43 -45 48 -47 16 -59 10
-288 -147 -62 -43 -69 -44 -105 -16 -21 17 -26 29 -26 67 0 65 35 135 125 248
79 101 93 131 79 172 -19 52 -55 67 -180 71 l-114 3 0 89 0 89 745 0 745 0 0
-89 0 -88 -77 -7 c-149 -12 -234 -76 -311 -231 -17 -33 -132 -321 -257 -640
-124 -319 -266 -681 -314 -805 -49 -124 -146 -375 -217 -557 l-129 -333 -365
0 -365 0 -102 263 c-56 144 -199 510 -318 812 -119 303 -277 705 -351 895
-151 385 -179 443 -244 510 -61 62 -106 81 -207 88 l-83 5 0 88 0 89 745 0
745 0 0 -89z"/>
<path d="M1765 2116 c-17 -7 -49 -34 -72 -60 -37 -42 -41 -50 -36 -89 12 -107
39 -138 153 -182 39 -15 73 -26 74 -24 2 2 16 28 30 57 32 63 66 189 66 243
l0 37 -87 16 c-103 19 -90 19 -128 2z"/>
</g>
</svg>
